<?xml version="1.0" encoding="UTF-8" standalone="no"?>
<svg viewBox="0 0 744.09448819 1052.3622047" xmlns="http://www.w3.org/2000/svg">
<defs>
<linearGradient gradientUnits="userSpaceOnUse" id="linearGradient3867" x1="353.67482" x2="398.37475" y1="386.36733" y2="413.68395">
<stop offset="0" stop-color="#ff0101"/>
<stop offset=".5" stop-color="#ffb0b0"/>
<stop offset="1" stop-color="#f00"/>
</linearGradient>
<radialGradient cx="152.05936" cy="238.80829" gradientTransform="matrix(.98334,-.03581,.05417,1.48737,-10.54319,-111.98921)" gradientUnits="userSpaceOnUse" id="radialGradient3865" r="36.67012">
<stop offset="0" stop-color="#ffabab"/>
<stop offset=".74351" stop-color="#ff3939"/>
<stop offset="1" stop-color="#c60000"/>
</radialGradient>
</defs>
<path d="m102.4375,195.4375-46.875,48.3125v690.0625h603.78125v-738.375h-556.90625z" fill="#fefe86"/>
<path d="m103.3304,197.77097c.24283-.0394-5.58695,7.05107-12.40625,15.28125h2.46875v27c16.60584-2.70215 33.83991-5.38232 33.625-5.125-.41072.49176-24.34372-37.04988-23.6875-37.15625z" fill="#959595" fill-opacity=".40708"/>
<path d="m-72.85009,209.02975c.31052-1.61916-151.42232,51.05235-150.17535,52.13085s31.49852-156.66175 29.94103-156.1211 119.9238,105.60941 120.23432,103.99025z" fill="#fefeb4" transform="matrix(-.37731,.22525,-.17662,-.28874,64.65654,320.84024)"/>
<g transform="matrix(.64183,0,0,.64183,118.68084,-9.55724)">
<path d="m473.47968,335.99492c-21.64402-2.49101-53.32382,16.0749-70.7543,41.46546-3.90568,5.68931-6.75323,11.23493-8.59505,16.44938l-12.3568,9.61762c-17.19554,2.1249-38.60142,16.15222-51.133,34.40668-14.49662,21.1169-11.63043,39.90231 6.37053,41.97404s44.32322-13.35439 58.81984-34.47128c1.77296-2.58261 3.29242-5.14612 4.55071-7.63301l12.4293-9.67959c21.52621.91823 51.51246-17.19086 68.29844-41.64261 17.43049-25.39056 14.01434-47.99567-7.62967-50.48669z" fill="#000101" fill-opacity=".12775"/>
<path d="m197.32019,222.91887c0,20.25235-16.41777,36.67012-36.67012,36.67012s-36.67012-16.41777-36.67012-36.67012 16.41777-36.67013 36.67012-36.67013 36.67012,16.41778 36.67012,36.67013z" fill="url(#radialGradient3865)" transform="translate(187.87215,220.76169)"/>
<path d="m375.52183,350.59177-43.6875,71.53125 .0937.0625c-2.48534,4.02707-3.9375,8.76404-3.9375,13.84375 0,14.58651 11.85099,26.4375 26.4375,26.4375 11.46527,0 21.19225-7.32119 24.84375-17.53125l40.96875-67-44.71875-27.34375z" fill="url(#linearGradient3867)"/>
<path d="m197.32019,222.91887c0,20.25235-16.41777,36.67012-36.67012,36.67012s-36.67012-16.41777-36.67012-36.67012 16.41777-36.67013 36.67012-36.67013 36.67012,16.41778 36.67012,36.67013z" fill="url(#radialGradient3865)" transform="matrix(1.20238,0,0,1.20238,194.64906,114.53029)"/>
</g>
</svg>
